<?xml version="1.0" encoding="UTF-8" ?>
<svg xmlns="http://www.w3.org/2000/svg"
     xmlns:xlink="http://www.w3.org/1999/xlink"
     height="100%" width="100%">
<defs>
  <pattern id="P" patternUnits="userSpaceOnUse" 
    patternTransform="scale(0.7) rotate(45)"
    width="100" height="100">
    <path d="M0,0 l100,0 0,100 -100,0z 
             M0,20 100,20 M0,40 100,40 M0,60 100,60 M0,80 100,80
             M20,0 20,100 M40,0 40,100 M60,0 60,100 M80,0 80,100"
       stroke-width="3" stroke="black" fill="none"/>
    <path d="M82,0 98,0 M42,20 58,20 M2,40 18,40 
             M62,60 78,60 M22,80 38,80 M82,100 98,100
             M0,62 0,78 M20,2 20,18 M40,42 40,58 M60,82 60,98
             M80,22 80,38 M100,62 100,78"
        fill="white" stroke-width="4" stroke="white"/> 
  </pattern>
</defs>
<g transform="translate(30,50)">
   <rect x="100" y="100" width="200" height="200" fill="url(#P)"/>
   <rect x="0" y="0" width="400" height="400"
     stroke="black" stroke-width="4" fill="none"/>
</g>
</svg>
